# MagicaVoxel @ Ephtracy

# group
o 

# material
mtllib Torreta-1.mtl
usemtl palette

# normals
vn -1 0 0
vn 1 0 0
vn 0 0 1
vn 0 0 -1
vn 0 -1 0
vn 0 1 0

# texcoords
vt 0.970703 0.5
vt 0.974609 0.5
vt 0.978516 0.5
vt 0.982422 0.5
vt 0.986328 0.5

# verts
v -0.4 1.5 0.7
v -0.4 1.5 0
v -0.4 1.7 0.7
v -0.4 1.7 0
v -0.4 1.7 -0.6
v -0.4 1.9 -0.6
v -0.4 1.9 -0.8
v -0.4 2 0.7
v -0.4 2 -0.8
v -0.4 2.3 -0.7
v -0.4 2.3 -0.8
v -0.4 2.5 0.7
v -0.4 2.5 -0.7
v -0.3 1.8 0.8
v -0.3 1.8 0.7
v -0.3 2 0.7
v -0.3 2.4 0.8
v -0.3 2.4 0.7
v -0.2 1.5 0
v -0.2 1.5 -0.2
v -0.2 1.7 0
v -0.2 1.7 -0.2
v -0.2 1.7 -0.6
v -0.2 1.7 -0.8
v -0.2 1.9 -0.6
v -0.2 1.9 -0.8
v -0.2 1.9 -1
v -0.2 2 0.9
v -0.2 2 0.8
v -0.2 2 -0.8
v -0.2 2 -1
v -0.2 2.2 0.9
v -0.2 2.2 0.8
v -0.2 2.3 -0.7
v -0.2 2.3 -0.8
v -0.2 2.3 -1
v -0.2 2.5 0.6
v -0.2 2.5 0.3
v -0.2 2.5 -0.7
v -0.2 2.5 -0.8
v -0.2 2.6 0.6
v -0.2 2.6 0.3
v -0.2 2.7 0.5
v -0.2 2.7 -0.2
v -0.2 2.9 0.5
v -0.2 2.9 -0.2
v -0.1 1.9 0.9
v -0.1 1.9 0.8
v -0.1 2 0.9
v -0.1 2 0.8
v -0.1 2.2 0.9
v -0.1 2.2 0.8
v -0.1 2.3 0.9
v -0.1 2.3 0.8
v -0.1 2.6 0.5
v -0.1 2.6 0.3
v -0.1 2.6 -0.2
v -0.1 2.7 0.5
v -0.1 2.7 -0.2
v -0.1 2.9 0.5
v -0.1 2.9 -0.2
v -0.1 3 0.5
v -0.1 3 -0.2
v 0.1 2 -0.6
v 0.1 2 -0.8
v 0.1 2 -1
v 0.1 2.2 -0.6
v 0.1 2.2 -0.8
v 0.1 2.2 -1
v 0.1 2.7 0.4
v 0.1 2.7 -0.1
v 0.1 2.9 0.4
v 0.1 2.9 -0.1
v 0.6 2 0.2
v 0.6 2 0
v 0.6 2.3 0.2
v 0.6 2.3 0
v -0.1 2 -0.6
v -0.1 2 -0.8
v -0.1 2 -1
v -0.1 2.2 -0.6
v -0.1 2.2 -0.8
v -0.1 2.2 -1
v -0.1 2.7 0.4
v -0.1 2.7 -0.1
v -0.1 2.9 0.4
v -0.1 2.9 -0.1
v 0.1 1.9 0.9
v 0.1 1.9 0.8
v 0.1 2 0.9
v 0.1 2 0.8
v 0.1 2.2 0.9
v 0.1 2.2 0.8
v 0.1 2.3 0.9
v 0.1 2.3 0.8
v 0.1 2.6 0.5
v 0.1 2.6 0.3
v 0.1 2.6 -0.2
v 0.1 2.7 0.5
v 0.1 2.7 -0.2
v 0.1 2.9 0.5
v 0.1 2.9 -0.2
v 0.1 3 0.5
v 0.1 3 -0.2
v 0.2 1.5 0
v 0.2 1.5 -0.2
v 0.2 1.7 0
v 0.2 1.7 -0.2
v 0.2 1.7 -0.6
v 0.2 1.7 -0.8
v 0.2 1.9 -0.6
v 0.2 1.9 -0.8
v 0.2 1.9 -1
v 0.2 2 0.9
v 0.2 2 0.8
v 0.2 2 -0.8
v 0.2 2 -1
v 0.2 2.2 0.9
v 0.2 2.2 0.8
v 0.2 2.3 -0.7
v 0.2 2.3 -0.8
v 0.2 2.3 -1
v 0.2 2.5 0.6
v 0.2 2.5 0.3
v 0.2 2.5 -0.7
v 0.2 2.5 -0.8
v 0.2 2.6 0.6
v 0.2 2.6 0.3
v 0.2 2.7 0.5
v 0.2 2.7 -0.2
v 0.2 2.9 0.5
v 0.2 2.9 -0.2
v 0.3 1.8 0.8
v 0.3 1.8 0.7
v 0.3 2 0.7
v 0.3 2 0.4
v 0.3 2 0
v 0.3 2.3 0.4
v 0.3 2.3 0
v 0.3 2.4 0.8
v 0.3 2.4 0.7
v 0.4 1.5 0.7
v 0.4 1.5 0
v 0.4 1.7 0.7
v 0.4 1.7 0
v 0.4 1.7 -0.6
v 0.4 1.9 -0.6
v 0.4 1.9 -0.8
v 0.4 2 0.7
v 0.4 2 0.4
v 0.4 2 0
v 0.4 2 -0.1
v 0.4 2 -0.8
v 0.4 2.3 0.4
v 0.4 2.3 0
v 0.4 2.3 -0.1
v 0.4 2.3 -0.7
v 0.4 2.3 -0.8
v 0.4 2.5 0.7
v 0.4 2.5 -0.7
v 0.7 2 0.2
v 0.7 2 -0.1
v 0.7 2.3 0.2
v 0.7 2.3 -0.1
v -0.2 2 0.9
v -0.2 2.2 0.9
v -0.1 1.9 0.9
v -0.1 2 0.9
v -0.1 2.2 0.9
v -0.1 2.3 0.9
v 0.1 1.9 0.9
v 0.1 2 0.9
v 0.1 2.2 0.9
v 0.1 2.3 0.9
v 0.2 2 0.9
v 0.2 2.2 0.9
v -0.3 1.8 0.8
v -0.3 2.4 0.8
v -0.2 2 0.8
v -0.2 2.2 0.8
v -0.1 1.9 0.8
v -0.1 2 0.8
v -0.1 2.2 0.8
v -0.1 2.3 0.8
v 0.1 1.9 0.8
v 0.1 2 0.8
v 0.1 2.2 0.8
v 0.1 2.3 0.8
v 0.2 2 0.8
v 0.2 2.2 0.8
v 0.3 1.8 0.8
v 0.3 2.4 0.8
v -0.4 1.5 0.7
v -0.4 1.7 0.7
v -0.4 2 0.7
v -0.4 2.5 0.7
v -0.3 1.8 0.7
v -0.3 2 0.7
v -0.3 2.4 0.7
v 0.3 1.8 0.7
v 0.3 2 0.7
v 0.3 2.4 0.7
v 0.4 1.5 0.7
v 0.4 1.7 0.7
v 0.4 2 0.7
v 0.4 2.5 0.7
v -0.2 2.5 0.6
v -0.2 2.6 0.6
v 0.2 2.5 0.6
v 0.2 2.6 0.6
v -0.2 2.7 0.5
v -0.2 2.9 0.5
v -0.1 2.6 0.5
v -0.1 2.7 0.5
v -0.1 2.9 0.5
v -0.1 3 0.5
v 0.1 2.6 0.5
v 0.1 2.7 0.5
v 0.1 2.9 0.5
v 0.1 3 0.5
v 0.2 2.7 0.5
v 0.2 2.9 0.5
v 0.6 2 0.2
v 0.6 2.3 0.2
v 0.7 2 0.2
v 0.7 2.3 0.2
v 0.3 2 0
v 0.3 2.3 0
v 0.4 2 0
v 0.4 2.3 0
v 0.6 2 0
v 0.6 2.3 0
v -0.1 2.7 -0.1
v -0.1 2.9 -0.1
v 0.1 2.7 -0.1
v 0.1 2.9 -0.1
v -0.1 2.7 0.4
v -0.1 2.9 0.4
v 0.1 2.7 0.4
v 0.1 2.9 0.4
v 0.3 2 0.4
v 0.3 2.3 0.4
v 0.4 2 0.4
v 0.4 2.3 0.4
v -0.2 2.5 0.3
v -0.2 2.6 0.3
v -0.1 2.6 0.3
v 0.1 2.6 0.3
v 0.2 2.5 0.3
v 0.2 2.6 0.3
v -0.4 1.5 0
v -0.4 1.7 0
v -0.2 1.5 0
v -0.2 1.7 0
v 0.2 1.5 0
v 0.2 1.7 0
v 0.4 1.5 0
v 0.4 1.7 0
v 0.4 2 -0.1
v 0.4 2.3 -0.1
v 0.7 2 -0.1
v 0.7 2.3 -0.1
v -0.2 1.5 -0.2
v -0.2 1.7 -0.2
v -0.2 2.7 -0.2
v -0.2 2.9 -0.2
v -0.1 2.6 -0.2
v -0.1 2.7 -0.2
v -0.1 2.9 -0.2
v -0.1 3 -0.2
v 0.1 2.6 -0.2
v 0.1 2.7 -0.2
v 0.1 2.9 -0.2
v 0.1 3 -0.2
v 0.2 1.5 -0.2
v 0.2 1.7 -0.2
v 0.2 2.7 -0.2
v 0.2 2.9 -0.2
v -0.4 1.7 -0.6
v -0.4 1.9 -0.6
v -0.2 1.7 -0.6
v -0.2 1.9 -0.6
v -0.1 2 -0.6
v -0.1 2.2 -0.6
v 0.1 2 -0.6
v 0.1 2.2 -0.6
v 0.2 1.7 -0.6
v 0.2 1.9 -0.6
v 0.4 1.7 -0.6
v 0.4 1.9 -0.6
v -0.4 2.3 -0.7
v -0.4 2.5 -0.7
v -0.2 2.3 -0.7
v -0.2 2.5 -0.7
v 0.2 2.3 -0.7
v 0.2 2.5 -0.7
v 0.4 2.3 -0.7
v 0.4 2.5 -0.7
v -0.4 1.9 -0.8
v -0.4 2 -0.8
v -0.4 2.3 -0.8
v -0.2 1.7 -0.8
v -0.2 1.9 -0.8
v -0.2 2 -0.8
v -0.2 2.3 -0.8
v -0.2 2.5 -0.8
v 0.2 1.7 -0.8
v 0.2 1.9 -0.8
v 0.2 2 -0.8
v 0.2 2.3 -0.8
v 0.2 2.5 -0.8
v 0.4 1.9 -0.8
v 0.4 2 -0.8
v 0.4 2.3 -0.8
v -0.2 1.9 -1
v -0.2 2 -1
v -0.2 2.3 -1
v -0.1 2 -1
v -0.1 2.2 -1
v 0.1 2 -1
v 0.1 2.2 -1
v 0.2 1.9 -1
v 0.2 2 -1
v 0.2 2.3 -1
v -0.4 1.5 0.7
v 0.4 1.5 0.7
v -0.2 1.5 0.4
v 0.2 1.5 0.4
v -0.4 1.5 0
v -0.2 1.5 0
v 0.2 1.5 0
v 0.4 1.5 0
v -0.2 1.5 -0.2
v 0.2 1.5 -0.2
v -0.4 1.7 0
v -0.2 1.7 0
v 0.2 1.7 0
v 0.4 1.7 0
v -0.2 1.7 -0.2
v 0.2 1.7 -0.2
v -0.4 1.7 -0.6
v -0.2 1.7 -0.6
v 0.2 1.7 -0.6
v 0.4 1.7 -0.6
v -0.2 1.7 -0.8
v 0.2 1.7 -0.8
v -0.3 1.8 0.8
v 0.3 1.8 0.8
v -0.3 1.8 0.7
v 0.3 1.8 0.7
v -0.1 1.9 0.9
v 0.1 1.9 0.9
v -0.1 1.9 0.8
v 0.1 1.9 0.8
v -0.4 1.9 -0.6
v -0.2 1.9 -0.6
v 0.2 1.9 -0.6
v 0.4 1.9 -0.6
v -0.4 1.9 -0.8
v -0.2 1.9 -0.8
v 0.2 1.9 -0.8
v 0.4 1.9 -0.8
v -0.2 1.9 -1
v 0.2 1.9 -1
v -0.2 2 0.9
v -0.1 2 0.9
v 0.1 2 0.9
v 0.2 2 0.9
v -0.2 2 0.8
v -0.1 2 0.8
v 0.1 2 0.8
v 0.2 2 0.8
v 0.6 2 0.2
v 0.7 2 0.2
v 0.4 2 0
v 0.6 2 0
v 0.4 2 -0.1
v 0.7 2 -0.1
v -0.1 2.2 -0.6
v 0.1 2.2 -0.6
v -0.1 2.2 -0.8
v 0.1 2.2 -0.8
v -0.1 2.2 -1
v 0.1 2.2 -1
v 0.3 2.3 0.4
v 0.4 2.3 0.4
v 0.3 2.3 0
v 0.4 2.3 0
v -0.1 2.6 0.3
v 0.1 2.6 0.3
v -0.1 2.6 -0.2
v 0.1 2.6 -0.2
v -0.2 2.7 0.5
v -0.1 2.7 0.5
v 0.1 2.7 0.5
v 0.2 2.7 0.5
v -0.2 2.7 -0.2
v -0.1 2.7 -0.2
v 0.1 2.7 -0.2
v 0.2 2.7 -0.2
v -0.1 2.9 0.4
v 0.1 2.9 0.4
v -0.1 2.9 -0.1
v 0.1 2.9 -0.1
v 0.3 2 0.4
v 0.4 2 0.4
v 0.3 2 0
v 0.4 2 0
v -0.1 2 -0.6
v 0.1 2 -0.6
v -0.1 2 -0.8
v 0.1 2 -0.8
v -0.1 2 -1
v 0.1 2 -1
v -0.2 2.2 0.9
v -0.1 2.2 0.9
v 0.1 2.2 0.9
v 0.2 2.2 0.9
v -0.2 2.2 0.8
v -0.1 2.2 0.8
v 0.1 2.2 0.8
v 0.2 2.2 0.8
v -0.1 2.3 0.9
v 0.1 2.3 0.9
v -0.1 2.3 0.8
v 0.1 2.3 0.8
v 0.6 2.3 0.2
v 0.7 2.3 0.2
v 0.4 2.3 0
v 0.6 2.3 0
v 0.4 2.3 -0.1
v 0.7 2.3 -0.1
v -0.4 2.3 -0.7
v -0.2 2.3 -0.7
v 0.2 2.3 -0.7
v 0.4 2.3 -0.7
v -0.4 2.3 -0.8
v -0.2 2.3 -0.8
v 0.2 2.3 -0.8
v 0.4 2.3 -0.8
v -0.2 2.3 -1
v 0.2 2.3 -1
v -0.3 2.4 0.8
v 0.3 2.4 0.8
v -0.3 2.4 0.7
v 0.3 2.4 0.7
v -0.4 2.5 0.7
v 0.4 2.5 0.7
v -0.2 2.5 0.6
v 0.2 2.5 0.6
v -0.2 2.5 0.3
v 0.2 2.5 0.3
v -0.4 2.5 -0.7
v -0.2 2.5 -0.7
v 0.2 2.5 -0.7
v 0.4 2.5 -0.7
v -0.2 2.5 -0.8
v 0.2 2.5 -0.8
v -0.2 2.6 0.6
v 0.2 2.6 0.6
v -0.1 2.6 0.5
v 0.1 2.6 0.5
v -0.2 2.6 0.3
v -0.1 2.6 0.3
v 0.1 2.6 0.3
v 0.2 2.6 0.3
v -0.1 2.7 0.4
v 0.1 2.7 0.4
v -0.1 2.7 -0.1
v 0.1 2.7 -0.1
v -0.2 2.9 0.5
v -0.1 2.9 0.5
v 0.1 2.9 0.5
v 0.2 2.9 0.5
v -0.2 2.9 -0.2
v -0.1 2.9 -0.2
v 0.1 2.9 -0.2
v 0.2 2.9 -0.2
v -0.1 3 0.5
v 0.1 3 0.5
v -0.1 3 -0.2
v 0.1 3 -0.2

# faces
f 3/2/1 2/2/1 1/2/1
f 4/2/1 2/2/1 3/2/1
f 6/4/1 4/4/1 3/4/1
f 6/4/1 5/4/1 4/4/1
f 8/4/1 6/4/1 3/4/1
f 8/4/1 7/4/1 6/4/1
f 9/4/1 7/4/1 8/4/1
f 10/5/1 9/5/1 8/5/1
f 11/5/1 9/5/1 10/5/1
f 12/5/1 10/5/1 8/5/1
f 13/5/1 10/5/1 12/5/1
f 16/3/1 15/3/1 14/3/1
f 17/3/1 16/3/1 14/3/1
f 18/3/1 16/3/1 17/3/1
f 21/2/1 20/2/1 19/2/1
f 22/2/1 20/2/1 21/2/1
f 25/4/1 24/4/1 23/4/1
f 26/4/1 24/4/1 25/4/1
f 30/4/1 27/4/1 26/4/1
f 31/4/1 27/4/1 30/4/1
f 32/3/1 29/3/1 28/3/1
f 33/3/1 29/3/1 32/3/1
f 35/5/1 31/5/1 30/5/1
f 36/5/1 31/5/1 35/5/1
f 39/5/1 35/5/1 34/5/1
f 40/5/1 35/5/1 39/5/1
f 41/3/1 38/3/1 37/3/1
f 42/3/1 38/3/1 41/3/1
f 45/3/1 44/3/1 43/3/1
f 46/3/1 44/3/1 45/3/1
f 49/3/1 48/3/1 47/3/1
f 50/3/1 48/3/1 49/3/1
f 53/3/1 52/3/1 51/3/1
f 54/3/1 52/3/1 53/3/1
f 58/3/1 56/3/1 55/3/1
f 58/3/1 57/3/1 56/3/1
f 59/3/1 57/3/1 58/3/1
f 62/3/1 61/3/1 60/3/1
f 63/3/1 61/3/1 62/3/1
f 67/3/1 65/3/1 64/3/1
f 68/5/1 66/5/1 65/5/1
f 68/3/1 65/3/1 67/3/1
f 69/5/1 66/5/1 68/5/1
f 72/3/1 71/3/1 70/3/1
f 73/3/1 71/3/1 72/3/1
f 76/3/1 75/3/1 74/3/1
f 77/3/1 75/3/1 76/3/1
f 78/3/2 79/3/2 81/3/2
f 79/5/2 80/5/2 82/5/2
f 81/3/2 79/3/2 82/3/2
f 82/5/2 80/5/2 83/5/2
f 84/3/2 85/3/2 86/3/2
f 86/3/2 85/3/2 87/3/2
f 88/3/2 89/3/2 90/3/2
f 90/3/2 89/3/2 91/3/2
f 92/3/2 93/3/2 94/3/2
f 94/3/2 93/3/2 95/3/2
f 96/3/2 97/3/2 99/3/2
f 97/3/2 98/3/2 99/3/2
f 99/3/2 98/3/2 100/3/2
f 101/3/2 102/3/2 103/3/2
f 103/3/2 102/3/2 104/3/2
f 105/2/2 106/2/2 107/2/2
f 107/2/2 106/2/2 108/2/2
f 109/4/2 110/4/2 111/4/2
f 111/4/2 110/4/2 112/4/2
f 112/4/2 113/4/2 116/4/2
f 116/4/2 113/4/2 117/4/2
f 114/3/2 115/3/2 118/3/2
f 118/3/2 115/3/2 119/3/2
f 116/5/2 117/5/2 121/5/2
f 121/5/2 117/5/2 122/5/2
f 120/5/2 121/5/2 125/5/2
f 125/5/2 121/5/2 126/5/2
f 123/3/2 124/3/2 127/3/2
f 127/3/2 124/3/2 128/3/2
f 129/3/2 130/3/2 131/3/2
f 131/3/2 130/3/2 132/3/2
f 133/3/2 134/3/2 135/3/2
f 136/3/2 137/3/2 138/3/2
f 138/3/2 137/3/2 139/3/2
f 133/3/2 135/3/2 140/3/2
f 140/3/2 135/3/2 141/3/2
f 142/2/2 143/2/2 144/2/2
f 144/2/2 143/2/2 145/2/2
f 144/4/2 145/4/2 147/4/2
f 145/4/2 146/4/2 147/4/2
f 144/4/2 147/4/2 149/4/2
f 147/4/2 148/4/2 149/4/2
f 149/4/2 148/4/2 150/4/2
f 150/4/2 148/4/2 151/4/2
f 151/4/2 148/4/2 152/4/2
f 152/4/2 148/4/2 153/4/2
f 149/5/2 150/5/2 154/5/2
f 152/5/2 153/5/2 156/5/2
f 156/5/2 153/5/2 157/5/2
f 157/5/2 153/5/2 158/5/2
f 154/5/2 155/5/2 159/5/2
f 149/5/2 154/5/2 159/5/2
f 156/5/2 157/5/2 159/5/2
f 155/5/2 156/5/2 159/5/2
f 159/5/2 157/5/2 160/5/2
f 161/3/2 162/3/2 163/3/2
f 163/3/2 162/3/2 164/3/2
f 168/3/3 166/3/3 165/3/3
f 169/3/3 166/3/3 168/3/3
f 171/3/3 168/3/3 167/3/3
f 171/3/3 170/3/3 169/3/3
f 171/3/3 169/3/3 168/3/3
f 172/3/3 170/3/3 171/3/3
f 173/3/3 170/3/3 172/3/3
f 174/3/3 170/3/3 173/3/3
f 175/3/3 173/3/3 172/3/3
f 176/3/3 173/3/3 175/3/3
f 179/3/3 178/3/3 177/3/3
f 180/3/3 178/3/3 179/3/3
f 181/3/3 179/3/3 177/3/3
f 182/3/3 179/3/3 181/3/3
f 183/3/3 178/3/3 180/3/3
f 184/3/3 178/3/3 183/3/3
f 185/3/3 181/3/3 177/3/3
f 188/3/3 178/3/3 184/3/3
f 189/3/3 186/3/3 185/3/3
f 190/3/3 188/3/3 187/3/3
f 191/3/3 189/3/3 185/3/3
f 191/3/3 190/3/3 189/3/3
f 191/3/3 185/3/3 177/3/3
f 192/3/3 188/3/3 190/3/3
f 192/3/3 190/3/3 191/3/3
f 192/3/3 178/3/3 188/3/3
f 197/4/3 195/4/3 194/4/3
f 198/5/3 196/5/3 195/5/3
f 198/4/3 195/4/3 197/4/3
f 199/5/3 196/5/3 198/5/3
f 200/4/3 197/4/3 194/4/3
f 202/5/3 196/5/3 199/5/3
f 203/2/3 194/2/3 193/2/3
f 204/4/3 201/4/3 200/4/3
f 204/2/3 194/2/3 203/2/3
f 204/4/3 200/4/3 194/4/3
f 205/5/3 202/5/3 201/5/3
f 205/4/3 201/4/3 204/4/3
f 206/5/3 196/5/3 202/5/3
f 206/5/3 202/5/3 205/5/3
f 209/3/3 208/3/3 207/3/3
f 210/3/3 208/3/3 209/3/3
f 214/3/3 212/3/3 211/3/3
f 215/3/3 212/3/3 214/3/3
f 217/3/3 214/3/3 213/3/3
f 218/2/3 215/2/3 214/2/3
f 218/3/3 214/3/3 217/3/3
f 219/3/3 216/3/3 215/3/3
f 219/2/3 215/2/3 218/2/3
f 220/3/3 216/3/3 219/3/3
f 221/3/3 219/3/3 218/3/3
f 222/3/3 219/3/3 221/3/3
f 225/3/3 224/3/3 223/3/3
f 226/3/3 224/3/3 225/3/3
f 229/3/3 228/3/3 227/3/3
f 230/3/3 228/3/3 229/3/3
f 231/3/3 230/3/3 229/3/3
f 232/3/3 230/3/3 231/3/3
f 235/2/3 234/2/3 233/2/3
f 236/2/3 234/2/3 235/2/3
f 237/2/4 238/2/4 239/2/4
f 239/2/4 238/2/4 240/2/4
f 241/5/4 242/5/4 243/5/4
f 243/5/4 242/5/4 244/5/4
f 245/3/4 246/3/4 247/3/4
f 245/3/4 247/3/4 248/3/4
f 245/3/4 248/3/4 249/3/4
f 249/3/4 248/3/4 250/3/4
f 251/2/4 252/2/4 253/2/4
f 253/2/4 252/2/4 254/2/4
f 255/2/4 256/2/4 257/2/4
f 257/2/4 256/2/4 258/2/4
f 259/3/4 260/3/4 261/3/4
f 261/3/4 260/3/4 262/3/4
f 265/3/4 266/3/4 268/3/4
f 268/3/4 266/3/4 269/3/4
f 267/3/4 268/3/4 271/3/4
f 268/2/4 269/2/4 272/2/4
f 271/3/4 268/3/4 272/3/4
f 269/3/4 270/3/4 273/3/4
f 272/2/4 269/2/4 273/2/4
f 273/3/4 270/3/4 274/3/4
f 263/2/4 264/2/4 275/2/4
f 275/2/4 264/2/4 276/2/4
f 272/3/4 273/3/4 277/3/4
f 277/3/4 273/3/4 278/3/4
f 279/4/4 280/4/4 281/4/4
f 281/4/4 280/4/4 282/4/4
f 283/3/4 284/3/4 285/3/4
f 285/3/4 284/3/4 286/3/4
f 287/4/4 288/4/4 289/4/4
f 289/4/4 288/4/4 290/4/4
f 291/5/4 292/5/4 293/5/4
f 293/5/4 292/5/4 294/5/4
f 295/5/4 296/5/4 297/5/4
f 297/5/4 296/5/4 298/5/4
f 299/4/4 300/4/4 303/4/4
f 300/5/4 301/5/4 304/5/4
f 303/4/4 300/4/4 304/4/4
f 304/5/4 301/5/4 305/5/4
f 302/4/4 303/4/4 307/4/4
f 307/4/4 303/4/4 308/4/4
f 305/5/4 306/5/4 310/5/4
f 310/5/4 306/5/4 311/5/4
f 308/4/4 309/4/4 312/4/4
f 309/5/4 310/5/4 313/5/4
f 312/4/4 309/4/4 313/4/4
f 313/5/4 310/5/4 314/5/4
f 315/4/4 316/4/4 318/4/4
f 316/5/4 317/5/4 318/5/4
f 318/5/4 317/5/4 319/5/4
f 315/4/4 318/4/4 320/4/4
f 319/5/4 317/5/4 321/5/4
f 315/4/4 320/4/4 322/4/4
f 320/5/4 321/5/4 323/5/4
f 322/4/4 320/4/4 323/4/4
f 321/5/4 317/5/4 324/5/4
f 323/5/4 321/5/4 324/5/4
f 327/2/5 326/2/5 325/2/5
f 328/2/5 326/2/5 327/2/5
f 329/2/5 327/2/5 325/2/5
f 330/1/5 328/1/5 327/1/5
f 330/2/5 327/2/5 329/2/5
f 331/2/5 326/2/5 328/2/5
f 331/1/5 328/1/5 330/1/5
f 332/2/5 326/2/5 331/2/5
f 333/2/5 331/2/5 330/2/5
f 334/2/5 331/2/5 333/2/5
f 339/4/5 336/4/5 335/4/5
f 340/4/5 338/4/5 337/4/5
f 341/4/5 339/4/5 335/4/5
f 341/4/5 340/4/5 339/4/5
f 342/4/5 340/4/5 341/4/5
f 343/4/5 338/4/5 340/4/5
f 343/4/5 340/4/5 342/4/5
f 344/4/5 338/4/5 343/4/5
f 345/4/5 343/4/5 342/4/5
f 346/4/5 343/4/5 345/4/5
f 349/3/5 348/3/5 347/3/5
f 350/3/5 348/3/5 349/3/5
f 353/3/5 352/3/5 351/3/5
f 354/3/5 352/3/5 353/3/5
f 359/4/5 356/4/5 355/4/5
f 360/4/5 356/4/5 359/4/5
f 361/4/5 358/4/5 357/4/5
f 362/4/5 358/4/5 361/4/5
f 363/4/5 361/4/5 360/4/5
f 364/4/5 361/4/5 363/4/5
f 369/3/5 366/3/5 365/3/5
f 370/3/5 366/3/5 369/3/5
f 371/3/5 368/3/5 367/3/5
f 372/3/5 368/3/5 371/3/5
f 376/3/5 374/3/5 373/3/5
f 377/3/5 376/3/5 375/3/5
f 378/3/5 374/3/5 376/3/5
f 378/3/5 376/3/5 377/3/5
f 381/3/5 380/3/5 379/3/5
f 382/3/5 380/3/5 381/3/5
f 383/5/5 382/5/5 381/5/5
f 384/5/5 382/5/5 383/5/5
f 387/5/5 386/5/5 385/5/5
f 388/5/5 386/5/5 387/5/5
f 391/3/5 390/3/5 389/3/5
f 392/3/5 390/3/5 391/3/5
f 397/3/5 394/3/5 393/3/5
f 398/3/5 394/3/5 397/3/5
f 399/3/5 396/3/5 395/3/5
f 400/3/5 396/3/5 399/3/5
f 403/3/5 402/3/5 401/3/5
f 404/3/5 402/3/5 403/3/5
f 405/4/6 406/4/6 407/4/6
f 407/4/6 406/4/6 408/4/6
f 409/3/6 410/3/6 411/3/6
f 411/3/6 410/3/6 412/3/6
f 411/4/6 412/4/6 413/4/6
f 413/4/6 412/4/6 414/4/6
f 415/3/6 416/3/6 419/3/6
f 419/3/6 416/3/6 420/3/6
f 417/3/6 418/3/6 421/3/6
f 421/3/6 418/3/6 422/3/6
f 423/3/6 424/3/6 425/3/6
f 425/3/6 424/3/6 426/3/6
f 427/3/6 428/3/6 430/3/6
f 429/3/6 430/3/6 431/3/6
f 430/3/6 428/3/6 432/3/6
f 431/3/6 430/3/6 432/3/6
f 433/5/6 434/5/6 437/5/6
f 437/5/6 434/5/6 438/5/6
f 435/5/6 436/5/6 439/5/6
f 439/5/6 436/5/6 440/5/6
f 438/5/6 439/5/6 441/5/6
f 441/5/6 439/5/6 442/5/6
f 443/3/6 444/3/6 445/3/6
f 445/3/6 444/3/6 446/3/6
f 447/5/6 448/5/6 449/5/6
f 449/5/6 448/5/6 450/5/6
f 447/5/6 449/5/6 451/5/6
f 450/5/6 448/5/6 452/5/6
f 447/5/6 451/5/6 453/5/6
f 451/5/6 452/5/6 453/5/6
f 453/5/6 452/5/6 454/5/6
f 452/5/6 448/5/6 455/5/6
f 454/5/6 452/5/6 455/5/6
f 455/5/6 448/5/6 456/5/6
f 454/5/6 455/5/6 457/5/6
f 457/5/6 455/5/6 458/5/6
f 459/3/6 460/3/6 461/3/6
f 461/3/6 460/3/6 462/3/6
f 459/3/6 461/3/6 463/3/6
f 463/3/6 461/3/6 464/3/6
f 462/3/6 460/3/6 465/3/6
f 465/3/6 460/3/6 466/3/6
f 467/3/6 468/3/6 469/3/6
f 469/3/6 468/3/6 470/3/6
f 471/3/6 472/3/6 475/3/6
f 475/3/6 472/3/6 476/3/6
f 473/3/6 474/3/6 477/3/6
f 477/3/6 474/3/6 478/3/6
f 479/3/6 480/3/6 481/3/6
f 481/3/6 480/3/6 482/3/6
