# MagicaVoxel @ Ephtracy

# group
o 

# material
mtllib Torreta-1.mtl
usemtl palette

# normals
vn -1 0 0
vn 1 0 0
vn 0 0 1
vn 0 0 -1
vn 0 -1 0
vn 0 1 0

# texcoords
vt 0.970703 0.5
vt 0.974609 0.5
vt 0.978516 0.5
vt 0.982422 0.5
vt 0.986328 0.5

# verts
v -0.4 1.7 0.7
v -0.4 1.7 0
v -0.4 1.9 0.7
v -0.4 1.9 0
v -0.4 1.9 -0.6
v -0.4 2.1 -0.6
v -0.4 2.1 -0.8
v -0.4 2.2 0.7
v -0.4 2.2 -0.8
v -0.4 2.5 -0.7
v -0.4 2.5 -0.8
v -0.4 2.7 0.7
v -0.4 2.7 -0.7
v -0.3 2 0.8
v -0.3 2 0.7
v -0.3 2.2 0.7
v -0.3 2.6 0.8
v -0.3 2.6 0.7
v -0.2 1.7 0
v -0.2 1.7 -0.2
v -0.2 1.9 0
v -0.2 1.9 -0.2
v -0.2 1.9 -0.6
v -0.2 1.9 -0.8
v -0.2 2.1 -0.6
v -0.2 2.1 -0.8
v -0.2 2.1 -1
v -0.2 2.2 0.9
v -0.2 2.2 0.8
v -0.2 2.2 -0.8
v -0.2 2.2 -1
v -0.2 2.4 0.9
v -0.2 2.4 0.8
v -0.2 2.5 -0.7
v -0.2 2.5 -0.8
v -0.2 2.5 -1
v -0.2 2.7 0.5
v -0.2 2.7 0.4
v -0.2 2.7 -0.7
v -0.2 2.7 -0.8
v -0.2 3 0.5
v -0.2 3 0.4
v -0.1 2.1 0.9
v -0.1 2.1 0.8
v -0.1 2.2 0.9
v -0.1 2.2 0.8
v -0.1 2.4 0.9
v -0.1 2.4 0.8
v -0.1 2.5 0.9
v -0.1 2.5 0.8
v 0.1 2.2 -0.6
v 0.1 2.2 -0.8
v 0.1 2.2 -1
v 0.1 2.4 -0.6
v 0.1 2.4 -0.8
v 0.1 2.4 -1
v 0.1 2.9 0.5
v 0.1 2.9 0.4
v 0.1 3 0.5
v 0.1 3 0.4
v -0.1 2.2 -0.6
v -0.1 2.2 -0.8
v -0.1 2.2 -1
v -0.1 2.4 -0.6
v -0.1 2.4 -0.8
v -0.1 2.4 -1
v -0.1 2.9 0.5
v -0.1 2.9 0.4
v -0.1 3 0.5
v -0.1 3 0.4
v 0.1 2.1 0.9
v 0.1 2.1 0.8
v 0.1 2.2 0.9
v 0.1 2.2 0.8
v 0.1 2.4 0.9
v 0.1 2.4 0.8
v 0.1 2.5 0.9
v 0.1 2.5 0.8
v 0.2 1.7 0
v 0.2 1.7 -0.2
v 0.2 1.9 0
v 0.2 1.9 -0.2
v 0.2 1.9 -0.6
v 0.2 1.9 -0.8
v 0.2 2.1 -0.6
v 0.2 2.1 -0.8
v 0.2 2.1 -1
v 0.2 2.2 0.9
v 0.2 2.2 0.8
v 0.2 2.2 -0.8
v 0.2 2.2 -1
v 0.2 2.4 0.9
v 0.2 2.4 0.8
v 0.2 2.5 -0.7
v 0.2 2.5 -0.8
v 0.2 2.5 -1
v 0.2 2.7 0.5
v 0.2 2.7 0.4
v 0.2 2.7 -0.7
v 0.2 2.7 -0.8
v 0.2 3 0.5
v 0.2 3 0.4
v 0.3 2 0.8
v 0.3 2 0.7
v 0.3 2.2 0.7
v 0.3 2.2 0.4
v 0.3 2.2 -0.1
v 0.3 2.5 0.4
v 0.3 2.5 -0.1
v 0.3 2.6 0.8
v 0.3 2.6 0.7
v 0.4 1.7 0.7
v 0.4 1.7 0
v 0.4 1.9 0.7
v 0.4 1.9 0
v 0.4 1.9 -0.6
v 0.4 2.1 -0.6
v 0.4 2.1 -0.8
v 0.4 2.2 0.7
v 0.4 2.2 0.4
v 0.4 2.2 -0.1
v 0.4 2.2 -0.8
v 0.4 2.5 0.4
v 0.4 2.5 -0.1
v 0.4 2.5 -0.7
v 0.4 2.5 -0.8
v 0.4 2.7 0.7
v 0.4 2.7 -0.7
v -0.2 2.2 0.9
v -0.2 2.4 0.9
v -0.1 2.1 0.9
v -0.1 2.2 0.9
v -0.1 2.4 0.9
v -0.1 2.5 0.9
v 0.1 2.1 0.9
v 0.1 2.2 0.9
v 0.1 2.4 0.9
v 0.1 2.5 0.9
v 0.2 2.2 0.9
v 0.2 2.4 0.9
v -0.3 2 0.8
v -0.3 2.6 0.8
v -0.2 2.2 0.8
v -0.2 2.4 0.8
v -0.1 2.1 0.8
v -0.1 2.2 0.8
v -0.1 2.4 0.8
v -0.1 2.5 0.8
v 0.1 2.1 0.8
v 0.1 2.2 0.8
v 0.1 2.4 0.8
v 0.1 2.5 0.8
v 0.2 2.2 0.8
v 0.2 2.4 0.8
v 0.3 2 0.8
v 0.3 2.6 0.8
v -0.4 1.7 0.7
v -0.4 1.9 0.7
v -0.4 2.2 0.7
v -0.4 2.7 0.7
v -0.3 2 0.7
v -0.3 2.2 0.7
v -0.3 2.6 0.7
v 0.3 2 0.7
v 0.3 2.2 0.7
v 0.3 2.6 0.7
v 0.4 1.7 0.7
v 0.4 1.9 0.7
v 0.4 2.2 0.7
v 0.4 2.7 0.7
v -0.2 2.7 0.5
v -0.2 3 0.5
v -0.1 2.9 0.5
v -0.1 3 0.5
v 0.1 2.9 0.5
v 0.1 3 0.5
v 0.2 2.7 0.5
v 0.2 3 0.5
v 0.3 2.2 -0.1
v 0.3 2.5 -0.1
v 0.4 2.2 -0.1
v 0.4 2.5 -0.1
v -0.2 2.7 0.4
v -0.2 3 0.4
v -0.1 2.9 0.4
v -0.1 3 0.4
v 0.1 2.9 0.4
v 0.1 3 0.4
v 0.2 2.7 0.4
v 0.2 3 0.4
v 0.3 2.2 0.4
v 0.3 2.5 0.4
v 0.4 2.2 0.4
v 0.4 2.5 0.4
v -0.4 1.7 0
v -0.4 1.9 0
v -0.2 1.7 0
v -0.2 1.9 0
v 0.2 1.7 0
v 0.2 1.9 0
v 0.4 1.7 0
v 0.4 1.9 0
v -0.2 1.7 -0.2
v -0.2 1.9 -0.2
v 0.2 1.7 -0.2
v 0.2 1.9 -0.2
v -0.4 1.9 -0.6
v -0.4 2.1 -0.6
v -0.2 1.9 -0.6
v -0.2 2.1 -0.6
v -0.1 2.2 -0.6
v -0.1 2.4 -0.6
v 0.1 2.2 -0.6
v 0.1 2.4 -0.6
v 0.2 1.9 -0.6
v 0.2 2.1 -0.6
v 0.4 1.9 -0.6
v 0.4 2.1 -0.6
v -0.4 2.5 -0.7
v -0.4 2.7 -0.7
v -0.2 2.5 -0.7
v -0.2 2.7 -0.7
v 0.2 2.5 -0.7
v 0.2 2.7 -0.7
v 0.4 2.5 -0.7
v 0.4 2.7 -0.7
v -0.4 2.1 -0.8
v -0.4 2.2 -0.8
v -0.4 2.5 -0.8
v -0.2 1.9 -0.8
v -0.2 2.1 -0.8
v -0.2 2.2 -0.8
v -0.2 2.5 -0.8
v -0.2 2.7 -0.8
v 0.2 1.9 -0.8
v 0.2 2.1 -0.8
v 0.2 2.2 -0.8
v 0.2 2.5 -0.8
v 0.2 2.7 -0.8
v 0.4 2.1 -0.8
v 0.4 2.2 -0.8
v 0.4 2.5 -0.8
v -0.2 2.1 -1
v -0.2 2.2 -1
v -0.2 2.5 -1
v -0.1 2.2 -1
v -0.1 2.4 -1
v 0.1 2.2 -1
v 0.1 2.4 -1
v 0.2 2.1 -1
v 0.2 2.2 -1
v 0.2 2.5 -1
v -0.4 1.7 0.7
v 0.4 1.7 0.7
v -0.2 1.7 0.4
v 0.2 1.7 0.4
v -0.4 1.7 0
v -0.2 1.7 0
v 0.2 1.7 0
v 0.4 1.7 0
v -0.2 1.7 -0.2
v 0.2 1.7 -0.2
v -0.4 1.9 0
v -0.2 1.9 0
v 0.2 1.9 0
v 0.4 1.9 0
v -0.2 1.9 -0.2
v 0.2 1.9 -0.2
v -0.4 1.9 -0.6
v -0.2 1.9 -0.6
v 0.2 1.9 -0.6
v 0.4 1.9 -0.6
v -0.2 1.9 -0.8
v 0.2 1.9 -0.8
v -0.3 2 0.8
v 0.3 2 0.8
v -0.3 2 0.7
v 0.3 2 0.7
v -0.1 2.1 0.9
v 0.1 2.1 0.9
v -0.1 2.1 0.8
v 0.1 2.1 0.8
v -0.4 2.1 -0.6
v -0.2 2.1 -0.6
v 0.2 2.1 -0.6
v 0.4 2.1 -0.6
v -0.4 2.1 -0.8
v -0.2 2.1 -0.8
v 0.2 2.1 -0.8
v 0.4 2.1 -0.8
v -0.2 2.1 -1
v 0.2 2.1 -1
v -0.2 2.2 0.9
v -0.1 2.2 0.9
v 0.1 2.2 0.9
v 0.2 2.2 0.9
v -0.2 2.2 0.8
v -0.1 2.2 0.8
v 0.1 2.2 0.8
v 0.2 2.2 0.8
v -0.1 2.4 -0.6
v 0.1 2.4 -0.6
v -0.1 2.4 -0.8
v 0.1 2.4 -0.8
v -0.1 2.4 -1
v 0.1 2.4 -1
v 0.3 2.5 0.4
v 0.4 2.5 0.4
v 0.3 2.5 -0.1
v 0.4 2.5 -0.1
v 0.3 2.2 0.4
v 0.4 2.2 0.4
v 0.3 2.2 -0.1
v 0.4 2.2 -0.1
v -0.1 2.2 -0.6
v 0.1 2.2 -0.6
v -0.1 2.2 -0.8
v 0.1 2.2 -0.8
v -0.1 2.2 -1
v 0.1 2.2 -1
v -0.2 2.4 0.9
v -0.1 2.4 0.9
v 0.1 2.4 0.9
v 0.2 2.4 0.9
v -0.2 2.4 0.8
v -0.1 2.4 0.8
v 0.1 2.4 0.8
v 0.2 2.4 0.8
v -0.1 2.5 0.9
v 0.1 2.5 0.9
v -0.1 2.5 0.8
v 0.1 2.5 0.8
v -0.4 2.5 -0.7
v -0.2 2.5 -0.7
v 0.2 2.5 -0.7
v 0.4 2.5 -0.7
v -0.4 2.5 -0.8
v -0.2 2.5 -0.8
v 0.2 2.5 -0.8
v 0.4 2.5 -0.8
v -0.2 2.5 -1
v 0.2 2.5 -1
v -0.3 2.6 0.8
v 0.3 2.6 0.8
v -0.3 2.6 0.7
v 0.3 2.6 0.7
v -0.4 2.7 0.7
v 0.4 2.7 0.7
v -0.2 2.7 0.5
v 0.2 2.7 0.5
v -0.2 2.7 0.4
v 0.2 2.7 0.4
v -0.4 2.7 -0.7
v -0.2 2.7 -0.7
v 0.2 2.7 -0.7
v 0.4 2.7 -0.7
v -0.2 2.7 -0.8
v 0.2 2.7 -0.8
v -0.1 2.9 0.5
v 0.1 2.9 0.5
v -0.1 2.9 0.4
v 0.1 2.9 0.4
v -0.2 3 0.5
v -0.1 3 0.5
v 0.1 3 0.5
v 0.2 3 0.5
v -0.2 3 0.4
v -0.1 3 0.4
v 0.1 3 0.4
v 0.2 3 0.4

# faces
f 3/2/1 2/2/1 1/2/1
f 4/2/1 2/2/1 3/2/1
f 6/4/1 4/4/1 3/4/1
f 6/4/1 5/4/1 4/4/1
f 8/4/1 6/4/1 3/4/1
f 8/4/1 7/4/1 6/4/1
f 9/4/1 7/4/1 8/4/1
f 10/5/1 9/5/1 8/5/1
f 11/5/1 9/5/1 10/5/1
f 12/5/1 10/5/1 8/5/1
f 13/5/1 10/5/1 12/5/1
f 16/3/1 15/3/1 14/3/1
f 17/3/1 16/3/1 14/3/1
f 18/3/1 16/3/1 17/3/1
f 21/2/1 20/2/1 19/2/1
f 22/2/1 20/2/1 21/2/1
f 25/4/1 24/4/1 23/4/1
f 26/4/1 24/4/1 25/4/1
f 30/4/1 27/4/1 26/4/1
f 31/4/1 27/4/1 30/4/1
f 32/3/1 29/3/1 28/3/1
f 33/3/1 29/3/1 32/3/1
f 35/5/1 31/5/1 30/5/1
f 36/5/1 31/5/1 35/5/1
f 39/5/1 35/5/1 34/5/1
f 40/5/1 35/5/1 39/5/1
f 41/3/1 38/3/1 37/3/1
f 42/3/1 38/3/1 41/3/1
f 45/3/1 44/3/1 43/3/1
f 46/3/1 44/3/1 45/3/1
f 49/3/1 48/3/1 47/3/1
f 50/3/1 48/3/1 49/3/1
f 54/3/1 52/3/1 51/3/1
f 55/5/1 53/5/1 52/5/1
f 55/3/1 52/3/1 54/3/1
f 56/5/1 53/5/1 55/5/1
f 59/3/1 58/3/1 57/3/1
f 60/3/1 58/3/1 59/3/1
f 61/3/2 62/3/2 64/3/2
f 62/5/2 63/5/2 65/5/2
f 64/3/2 62/3/2 65/3/2
f 65/5/2 63/5/2 66/5/2
f 67/3/2 68/3/2 69/3/2
f 69/3/2 68/3/2 70/3/2
f 71/3/2 72/3/2 73/3/2
f 73/3/2 72/3/2 74/3/2
f 75/3/2 76/3/2 77/3/2
f 77/3/2 76/3/2 78/3/2
f 79/2/2 80/2/2 81/2/2
f 81/2/2 80/2/2 82/2/2
f 83/4/2 84/4/2 85/4/2
f 85/4/2 84/4/2 86/4/2
f 86/4/2 87/4/2 90/4/2
f 90/4/2 87/4/2 91/4/2
f 88/3/2 89/3/2 92/3/2
f 92/3/2 89/3/2 93/3/2
f 90/5/2 91/5/2 95/5/2
f 95/5/2 91/5/2 96/5/2
f 94/5/2 95/5/2 99/5/2
f 99/5/2 95/5/2 100/5/2
f 97/3/2 98/3/2 101/3/2
f 101/3/2 98/3/2 102/3/2
f 103/3/2 104/3/2 105/3/2
f 106/3/2 107/3/2 108/3/2
f 108/3/2 107/3/2 109/3/2
f 103/3/2 105/3/2 110/3/2
f 110/3/2 105/3/2 111/3/2
f 112/2/2 113/2/2 114/2/2
f 114/2/2 113/2/2 115/2/2
f 114/4/2 115/4/2 117/4/2
f 115/4/2 116/4/2 117/4/2
f 114/4/2 117/4/2 119/4/2
f 117/4/2 118/4/2 119/4/2
f 119/4/2 118/4/2 120/4/2
f 120/4/2 118/4/2 121/4/2
f 121/4/2 118/4/2 122/4/2
f 119/5/2 120/5/2 123/5/2
f 121/5/2 122/5/2 124/5/2
f 124/5/2 122/5/2 125/5/2
f 125/5/2 122/5/2 126/5/2
f 119/5/2 123/5/2 127/5/2
f 123/5/2 124/5/2 127/5/2
f 124/5/2 125/5/2 127/5/2
f 127/5/2 125/5/2 128/5/2
f 132/3/3 130/3/3 129/3/3
f 133/3/3 130/3/3 132/3/3
f 135/3/3 132/3/3 131/3/3
f 135/3/3 134/3/3 133/3/3
f 135/3/3 133/3/3 132/3/3
f 136/3/3 134/3/3 135/3/3
f 137/3/3 134/3/3 136/3/3
f 138/3/3 134/3/3 137/3/3
f 139/3/3 137/3/3 136/3/3
f 140/3/3 137/3/3 139/3/3
f 143/3/3 142/3/3 141/3/3
f 144/3/3 142/3/3 143/3/3
f 145/3/3 143/3/3 141/3/3
f 146/3/3 143/3/3 145/3/3
f 147/3/3 142/3/3 144/3/3
f 148/3/3 142/3/3 147/3/3
f 149/3/3 145/3/3 141/3/3
f 152/3/3 142/3/3 148/3/3
f 153/3/3 150/3/3 149/3/3
f 154/3/3 152/3/3 151/3/3
f 155/3/3 153/3/3 149/3/3
f 155/3/3 154/3/3 153/3/3
f 155/3/3 149/3/3 141/3/3
f 156/3/3 152/3/3 154/3/3
f 156/3/3 154/3/3 155/3/3
f 156/3/3 142/3/3 152/3/3
f 161/4/3 159/4/3 158/4/3
f 162/5/3 160/5/3 159/5/3
f 162/4/3 159/4/3 161/4/3
f 163/5/3 160/5/3 162/5/3
f 164/4/3 161/4/3 158/4/3
f 166/5/3 160/5/3 163/5/3
f 167/2/3 158/2/3 157/2/3
f 168/4/3 165/4/3 164/4/3
f 168/2/3 158/2/3 167/2/3
f 168/4/3 164/4/3 158/4/3
f 169/5/3 166/5/3 165/5/3
f 169/4/3 165/4/3 168/4/3
f 170/5/3 160/5/3 166/5/3
f 170/5/3 166/5/3 169/5/3
f 173/3/3 172/3/3 171/3/3
f 174/3/3 172/3/3 173/3/3
f 175/3/3 173/3/3 171/3/3
f 177/3/3 175/3/3 171/3/3
f 177/3/3 176/3/3 175/3/3
f 178/3/3 176/3/3 177/3/3
f 181/5/3 180/5/3 179/5/3
f 182/5/3 180/5/3 181/5/3
f 183/3/4 184/3/4 185/3/4
f 185/3/4 184/3/4 186/3/4
f 183/3/4 185/3/4 187/3/4
f 183/3/4 187/3/4 189/3/4
f 187/3/4 188/3/4 189/3/4
f 189/3/4 188/3/4 190/3/4
f 191/5/4 192/5/4 193/5/4
f 193/5/4 192/5/4 194/5/4
f 195/2/4 196/2/4 197/2/4
f 197/2/4 196/2/4 198/2/4
f 199/2/4 200/2/4 201/2/4
f 201/2/4 200/2/4 202/2/4
f 203/2/4 204/2/4 205/2/4
f 205/2/4 204/2/4 206/2/4
f 207/4/4 208/4/4 209/4/4
f 209/4/4 208/4/4 210/4/4
f 211/3/4 212/3/4 213/3/4
f 213/3/4 212/3/4 214/3/4
f 215/4/4 216/4/4 217/4/4
f 217/4/4 216/4/4 218/4/4
f 219/5/4 220/5/4 221/5/4
f 221/5/4 220/5/4 222/5/4
f 223/5/4 224/5/4 225/5/4
f 225/5/4 224/5/4 226/5/4
f 227/4/4 228/4/4 231/4/4
f 228/5/4 229/5/4 232/5/4
f 231/4/4 228/4/4 232/4/4
f 232/5/4 229/5/4 233/5/4
f 230/4/4 231/4/4 235/4/4
f 235/4/4 231/4/4 236/4/4
f 233/5/4 234/5/4 238/5/4
f 238/5/4 234/5/4 239/5/4
f 236/4/4 237/4/4 240/4/4
f 237/5/4 238/5/4 241/5/4
f 240/4/4 237/4/4 241/4/4
f 241/5/4 238/5/4 242/5/4
f 243/4/4 244/4/4 246/4/4
f 244/5/4 245/5/4 246/5/4
f 246/5/4 245/5/4 247/5/4
f 243/4/4 246/4/4 248/4/4
f 247/5/4 245/5/4 249/5/4
f 243/4/4 248/4/4 250/4/4
f 248/5/4 249/5/4 251/5/4
f 250/4/4 248/4/4 251/4/4
f 249/5/4 245/5/4 252/5/4
f 251/5/4 249/5/4 252/5/4
f 255/2/5 254/2/5 253/2/5
f 256/2/5 254/2/5 255/2/5
f 257/2/5 255/2/5 253/2/5
f 258/1/5 256/1/5 255/1/5
f 258/2/5 255/2/5 257/2/5
f 259/2/5 254/2/5 256/2/5
f 259/1/5 256/1/5 258/1/5
f 260/2/5 254/2/5 259/2/5
f 261/2/5 259/2/5 258/2/5
f 262/2/5 259/2/5 261/2/5
f 267/4/5 264/4/5 263/4/5
f 268/4/5 266/4/5 265/4/5
f 269/4/5 267/4/5 263/4/5
f 269/4/5 268/4/5 267/4/5
f 270/4/5 268/4/5 269/4/5
f 271/4/5 266/4/5 268/4/5
f 271/4/5 268/4/5 270/4/5
f 272/4/5 266/4/5 271/4/5
f 273/4/5 271/4/5 270/4/5
f 274/4/5 271/4/5 273/4/5
f 277/3/5 276/3/5 275/3/5
f 278/3/5 276/3/5 277/3/5
f 281/3/5 280/3/5 279/3/5
f 282/3/5 280/3/5 281/3/5
f 287/4/5 284/4/5 283/4/5
f 288/4/5 284/4/5 287/4/5
f 289/4/5 286/4/5 285/4/5
f 290/4/5 286/4/5 289/4/5
f 291/4/5 289/4/5 288/4/5
f 292/4/5 289/4/5 291/4/5
f 297/3/5 294/3/5 293/3/5
f 298/3/5 294/3/5 297/3/5
f 299/3/5 296/3/5 295/3/5
f 300/3/5 296/3/5 299/3/5
f 303/3/5 302/3/5 301/3/5
f 304/3/5 302/3/5 303/3/5
f 305/5/5 304/5/5 303/5/5
f 306/5/5 304/5/5 305/5/5
f 309/5/5 308/5/5 307/5/5
f 310/5/5 308/5/5 309/5/5
f 311/4/6 312/4/6 313/4/6
f 313/4/6 312/4/6 314/4/6
f 315/3/6 316/3/6 317/3/6
f 317/3/6 316/3/6 318/3/6
f 317/4/6 318/4/6 319/4/6
f 319/4/6 318/4/6 320/4/6
f 321/3/6 322/3/6 325/3/6
f 325/3/6 322/3/6 326/3/6
f 323/3/6 324/3/6 327/3/6
f 327/3/6 324/3/6 328/3/6
f 329/3/6 330/3/6 331/3/6
f 331/3/6 330/3/6 332/3/6
f 333/5/6 334/5/6 337/5/6
f 337/5/6 334/5/6 338/5/6
f 335/5/6 336/5/6 339/5/6
f 339/5/6 336/5/6 340/5/6
f 338/5/6 339/5/6 341/5/6
f 341/5/6 339/5/6 342/5/6
f 343/3/6 344/3/6 345/3/6
f 345/3/6 344/3/6 346/3/6
f 347/5/6 348/5/6 349/5/6
f 349/5/6 348/5/6 350/5/6
f 347/5/6 349/5/6 351/5/6
f 350/5/6 348/5/6 352/5/6
f 347/5/6 351/5/6 353/5/6
f 351/5/6 352/5/6 353/5/6
f 353/5/6 352/5/6 354/5/6
f 352/5/6 348/5/6 355/5/6
f 354/5/6 352/5/6 355/5/6
f 355/5/6 348/5/6 356/5/6
f 354/5/6 355/5/6 357/5/6
f 357/5/6 355/5/6 358/5/6
f 359/3/6 360/3/6 361/3/6
f 361/3/6 360/3/6 362/3/6
f 363/3/6 364/3/6 367/3/6
f 367/3/6 364/3/6 368/3/6
f 365/3/6 366/3/6 369/3/6
f 369/3/6 366/3/6 370/3/6
